<svg xmlns="http://www.w3.org/2000/svg" width="24" height="24" viewBox="0 0 24 24">
    <g data-name="icons/chevron light">
        <path style="fill:none" d="M0 0h24v24H0z"/>
        <g data-name="Group 3053">
            <g data-name="Exit-Out-Arrow-Arrows-Direction-User Interface">
                <path data-name="Subtraction 2" d="M-6425.1 393a8.766 8.766 0 0 1-5.36-1.813l-.011-.009a.581.581 0 0 1-.059-.052.774.774 0 0 1-.241-.55.775.775 0 0 1 .22-.56.765.765 0 0 1 .558-.239.771.771 0 0 1 .472.161 7.231 7.231 0 0 0 4.429 1.5 7.309 7.309 0 0 0 4.623-1.653 7.253 7.253 0 0 0 2.631-4.92 7.247 7.247 0 0 0-1.619-5.338 7.267 7.267 0 0 0-5.638-2.665 7.3 7.3 0 0 0-4.62 1.654.776.776 0 0 1-.492.176h-.031a.788.788 0 0 1-.57-.287.786.786 0 0 1 .108-1.1 8.885 8.885 0 0 1 5.607-2 8.779 8.779 0 0 1 5.37 1.816 8.859 8.859 0 0 1 1.663 12.4 8.787 8.787 0 0 1-7.04 3.479z" transform="translate(6438.092 -372.15)" style="fill:#fff"/>
            </g>
            <path data-name="Subtraction 1" d="M-6143.833 749.275a.781.781 0 0 1-.553-.229.781.781 0 0 1-.229-.553.774.774 0 0 1 .229-.551l1.52-1.52h-10.76a.783.783 0 0 1-.751-.808.785.785 0 0 1 .751-.754h10.76l-1.52-1.52a.782.782 0 0 1 0-1.1.782.782 0 0 1 .553-.229.775.775 0 0 1 .552.229l3.072 3.072a.475.475 0 0 1 0 .666l-3.072 3.072a.775.775 0 0 1-.552.225z" transform="translate(6156.527 -733.641)" style="fill:#fff"/>
        </g>
    </g>
</svg>
