<svg xmlns="http://www.w3.org/2000/svg" width="24" height="24" viewBox="0 0 24 24">
    <path style="fill:transparent" d="M0 0h24v24H0z"/>
    <g data-name="Group 3084">
        <g data-name="Layer 2">
            <g data-name="no communication">
                <g data-name="Group 1003">
                    <path data-name="Path 3505" d="M982.457 172.56a8.853 8.853 0 0 0 17.678 0v-3.2h-17.678zm8.443 2.24a1.856 1.856 0 1 1-1.9 1.856 1.875 1.875 0 0 1 1.9-1.856z" transform="translate(-979.097 -159.919)" style="fill:#fff;fill-rule:evenodd"/>
                    <path data-name="Path 3506" d="M1000.743 165.359h-19.286v4.08h20v-4.08z" transform="translate(-979.457 -161.359)" style="fill:#fff;fill-rule:evenodd"/>
                    <path data-name="Path 3507" d="M988.921 176.01a.932.932 0 1 0-.952-.932.951.951 0 0 0 .952.932z" transform="translate(-977.113 -158.196)" style="fill:#fff;fill-rule:evenodd"/>
                </g>
            </g>
        </g>
    </g>
</svg>
