<svg xmlns="http://www.w3.org/2000/svg" width="24" height="24" viewBox="0 0 24 24">
    <path style="fill:transparent" d="M0 0h24v24H0z"/>
    <g data-name="Group 5243">
        <g data-name="Group 522">
            <g data-name="Group 516">
                <g data-name="Group 515">
                    <path data-name="Path 1968" d="m992.494 366.484-3.624-.06-.728-1.132a2.08 2.08 0 0 0 .068-2.551l-.495-.686 2.83-1.571a2.137 2.137 0 0 0 .734-3.066l-2.066-3.954a2.422 2.422 0 0 0-1.92-1.039 2.309 2.309 0 0 0-1.17.292l-12.523 7.055a.754.754 0 0 0-.137 1l3.513 6.622a.491.491 0 0 0 .433.278.485.485 0 0 0 .246-.062l5.067-2.785.523.906a2.244 2.244 0 0 0 1.9 1.116 2.177 2.177 0 0 0 .471-.056l.784 1.218a2.933 2.933 0 0 0 2.425 1.35l3.625.06" transform="translate(-968.799 -349.425)" style="fill:#fff"/>
                </g>
            </g>
            <path data-name="Path 1969" d="m970.008 373.691 3.535-2.469a.446.446 0 0 0 .171-.607l-2.121-4.063a.447.447 0 0 0-.6-.206l-4.046 1.491a.448.448 0 0 0-.172.608l2.632 5.041a.447.447 0 0 0 .6.206z" transform="translate(-966.723 -353.787)" style="fill:#fff"/>
        </g>
    </g>
</svg>
