<svg xmlns="http://www.w3.org/2000/svg" width="24" height="24" viewBox="0 0 24 24">
    <path style="fill:none" d="M0 0h24v24H0z"/>
    <g data-name="Group 2677">
        <path data-name="Path 4383" d="M17.8 15.484a6.43 6.43 0 0 0-8.877 0l-7.609 7.37a4.251 4.251 0 0 0 0 6.141 4.593 4.593 0 0 0 6.341 0l6.975-6.756a2.548 2.548 0 0 0 0-3.685 2.756 2.756 0 0 0-3.8 0l-4.568 4.419a.849.849 0 0 0 0 1.228.917.917 0 0 0 1.268 0l4.561-4.418a.919.919 0 0 1 1.268 0 .849.849 0 0 1 0 1.228l-6.974 6.756a2.756 2.756 0 0 1-3.8 0 2.551 2.551 0 0 1 0-3.685l7.609-7.37a4.593 4.593 0 0 1 6.341 0 4.246 4.246 0 0 1 0 6.141l-7.609 7.37a.849.849 0 0 0 0 1.228.918.918 0 0 0 1.268 0l7.609-7.37a5.945 5.945 0 0 0 0-8.6z" transform="translate(2 -10.706)" style="fill:#fff"/>
    </g>
</svg>
