<svg xmlns="http://www.w3.org/2000/svg" width="58" height="58">
    <defs>
        <style>
            .cls-1{fill:#fff}
        </style>
    </defs>
    <g id="fingerprint" transform="translate(-278.88 -367.858)">
        <path id="Path_5849" data-name="Path 5849" class="cls-1" d="M298.038 387.633a14.69 14.69 0 0 1 19.937 0 .927.927 0 0 0 .631.245.937.937 0 0 0 .632-1.63 16.566 16.566 0 0 0-22.465 0l-.022.021a.938.938 0 1 0 1.287 1.364z"/>
        <path id="Path_5850" data-name="Path 5850" class="cls-1" d="M308.005 385.527a15.654 15.654 0 0 0-12.966 7.017.938.938 0 1 0 1.557 1.048 13.608 13.608 0 0 1 22.818 0 .933.933 0 0 0 .779.412.936.936 0 0 0 .779-1.459 15.652 15.652 0 0 0-12.967-7.018z"/>
        <path id="Path_5851" data-name="Path 5851" class="cls-1" d="M301.244 401.749a6.766 6.766 0 1 1 13.522 0 .938.938 0 0 0 1.875 0 8.64 8.64 0 1 0-17.272.005c0 4.721 4.809 9.625 5.009 9.831a.937.937 0 0 0 .666.278.937.937 0 0 0 .666-1.6c-.045-.048-4.466-4.555-4.466-8.514z"/>
        <path id="Path_5852" data-name="Path 5852" class="cls-1" d="M308.811 389.222a11.894 11.894 0 0 0-9 3.231 12.827 12.827 0 0 0-1.221 17.272.938.938 0 1 0 1.466-1.171 10.952 10.952 0 0 1 1.036-14.731 10.041 10.041 0 0 1 7.6-2.729c5.4.36 9.627 5.217 9.627 11.054v.443a2.618 2.618 0 1 1-5.231-.229v-.611a5.241 5.241 0 0 0-1.546-3.751 4.99 4.99 0 0 0-3.537-1.47h-.026a4.78 4.78 0 0 0-3.565 1.636 6.061 6.061 0 0 0-1.436 4.621c.506 4.777 5.734 9.067 7.989 9.067a.937.937 0 0 0 0-1.874c-1.233 0-5.711-3.491-6.125-7.391a4.159 4.159 0 0 1 .97-3.174 2.9 2.9 0 0 1 2.177-1.012H308a3.124 3.124 0 0 1 2.215.925 3.384 3.384 0 0 1 .992 2.417v.843a4.492 4.492 0 1 0 8.981-.232v-.214c.002-6.82-4.997-12.494-11.377-12.92z"/>
        <path id="Path_5853" data-name="Path 5853" class="cls-1" d="M314.445 408.151c-2.457 0-5.576-3.3-5.576-7.011a.938.938 0 0 0-1.875 0c0 4.786 4.1 8.886 7.451 8.886h.061a.938.938 0 0 0-.061-1.875z"/>
        <path id="Path_5854" data-name="Path 5854" class="cls-1" d="M307.88 367.858a29 29 0 1 0 29 29 29.032 29.032 0 0 0-29-29zm0 56a27 27 0 1 1 27-27 27.03 27.03 0 0 1-27 27z"/>
    </g>
</svg>
