<svg xmlns="http://www.w3.org/2000/svg" width="104" height="34">
    <defs>
        <style>
            .cls-2{fill:none}.cls-4,.cls-6{fill:#fff}.cls-6{stroke:#fff}.cls-7{stroke:none}
        </style>
    </defs>
    <g id="list" transform="translate(-332 -858)">
        <g id="Group_3134" data-name="Group 3134">
            <g id="Group_3079" data-name="Group 3079" transform="translate(205 765)">
                <rect id="Rectangle_1509" data-name="Rectangle 1509" width="104" height="34" rx="4" transform="translate(127 93)" style="fill:#000e2a"/>
                <rect id="Rectangle_1511" data-name="Rectangle 1511" class="cls-2" width="50" height="30" rx="2" transform="translate(179 95)"/>
                <g id="Group_3074" data-name="Group 3074" transform="translate(88 -36)" style="opacity:.5">
                    <g id="Group_3076" data-name="Group 3076" transform="translate(.75)">
                        <rect id="Rectangle_1503" data-name="Rectangle 1503" class="cls-4" width="14" height="2" rx=".5" transform="translate(111.25 151)"/>
                        <rect id="Rectangle_1504" data-name="Rectangle 1504" class="cls-4" width="14" height="2" rx=".5" transform="translate(111.25 145)"/>
                        <rect id="Rectangle_1502" data-name="Rectangle 1502" class="cls-4" width="14" height="2" rx=".5" transform="translate(111.25 139)"/>
                    </g>
                    <g id="Group_3071" data-name="Group 3071" transform="translate(106 139)">
                        <rect id="Rectangle_1502-2" data-name="Rectangle 1502" class="cls-4" width="2" height="2" rx=".5"/>
                    </g>
                    <g id="Group_3077" data-name="Group 3077" transform="translate(106 145)">
                        <rect id="Rectangle_1502-3" data-name="Rectangle 1502" class="cls-4" width="2" height="2" rx=".5"/>
                    </g>
                    <g id="Group_3078" data-name="Group 3078" transform="translate(106 151)">
                        <rect id="Rectangle_1502-4" data-name="Rectangle 1502" class="cls-4" width="2" height="2" rx=".5"/>
                    </g>
                </g>
                <rect id="Rectangle_1510" data-name="Rectangle 1510" width="50" height="30" rx="2" transform="translate(129 95)" style="fill:#42a5f5"/>
                <g id="Group_3075" data-name="Group 3075" transform="translate(128 6)">
                    <g id="Rectangle_1502-5" data-name="Rectangle 1502" class="cls-6" transform="translate(16 97)">
                        <rect class="cls-7" width="6" height="6" rx="1"/>
                        <rect class="cls-2" x=".5" y=".5" width="5" height="5" rx=".5"/>
                    </g>
                    <g id="Rectangle_1506" data-name="Rectangle 1506" class="cls-6" transform="translate(24 97)">
                        <rect class="cls-7" width="12" height="6" rx="1"/>
                        <rect class="cls-2" x=".5" y=".5" width="11" height="5" rx=".5"/>
                    </g>
                    <g id="Rectangle_1503-2" data-name="Rectangle 1503" class="cls-6" transform="translate(16 105)">
                        <rect class="cls-7" width="6" height="6" rx="1"/>
                        <rect class="cls-2" x=".5" y=".5" width="5" height="5" rx=".5"/>
                    </g>
                    <g id="Rectangle_1505" data-name="Rectangle 1505" class="cls-6" transform="translate(24 105)">
                        <rect class="cls-7" width="12" height="6" rx="1"/>
                        <rect class="cls-2" x=".5" y=".5" width="11" height="5" rx=".5"/>
                    </g>
                </g>
            </g>
        </g>
    </g>
</svg>
