<svg xmlns="http://www.w3.org/2000/svg" width="24" height="24">
    <path style="fill:transparent" d="M0 0h24v24H0z"/>
    <path data-name="Forma 1" d="m206.337 61.953-6.2-1.878h-.034c-.034 0-.052-.017-.086-.017h-.172a.155.155 0 0 0-.086.017h-.034l-5.971 1.825-5.99-1.826a.719.719 0 0 0-.62.1.744.744 0 0 0-.293.569V77.46a.7.7 0 0 0 .5.672l6.2 1.878a.637.637 0 0 0 .413 0l5.99-1.809 5.99 1.809a.866.866 0 0 0 .207.034.7.7 0 0 0 .413-.138.744.744 0 0 0 .293-.569V62.625a.714.714 0 0 0-.52-.672zm-13.289 16.455-4.785-1.447V61.695l4.785 1.447zm6.2-1.465-4.785 1.465V63.159l4.785-1.465zm6.2 1.465-4.785-1.447V61.695l4.785 1.447v15.266z" transform="translate(-184.852 -58.044)" style="fill:#fff"/>
</svg>
