<svg xmlns="http://www.w3.org/2000/svg">
    <path d="F1 M 34.0133,0.766678C 33.8573,0.706619 33.736,0.667984 33.58,0.667984C 33.2467,0.667984 33.2026,0.786636 32.9667,1.04262L 25.3333,8.97462L 25.3333,5.71864C 25.3333,2.58131 22.32,1.52588e-005 19.204,1.52588e-005L 5.39734,1.52588e-005C 2.28003,1.52588e-005 0,2.58131 0,5.71864L 0,19.6107C 0,22.7479 2.28003,25.3333 5.39734,25.3333L 19.204,25.3333C 22.32,25.3333 25.3333,22.7479 25.3333,19.6107L 25.3333,16.336L 32.9946,24.288C 33.2307,24.544 33.424,24.6627 33.7573,24.6627C 33.9133,24.6627 33.9174,24.6239 34.0734,24.564C 34.5253,24.3666 34.6666,23.9119 34.6666,23.4L 34.6666,1.93068C 34.6666,1.41731 34.4653,0.962662 34.0133,0.766678 Z"  style="fill:#fff"/>
</svg>
