<svg xmlns="http://www.w3.org/2000/svg" width="24" height="24" viewBox="0 0 24 24">
    <path style="fill:transparent" d="M0 0h24v24H0z"/>
    <g data-name="Group 5206">
        <g data-name="Group 5207">
            <path data-name="Union 3" d="M-6714.113 631a2 2 0 0 1-2-2v-12a2 2 0 0 1 2-2h12a2 2 0 0 1 2 2v12a2 2 0 0 1-2 2zm0-2h12v-12h-12zm2.5-4.059a1 1 0 0 1-1-1 1 1 0 0 1 1-1h4a1 1 0 0 1 1 1 1 1 0 0 1-1 1zm0-3.765a1 1 0 0 1-1-1 1 1 0 0 1 1-1h7a1 1 0 0 1 1 1 1 1 0 0 1-1 1z" transform="translate(6720.113 -611)" style="fill:#fff"/>
        </g>
    </g>
</svg>
