<svg xmlns="http://www.w3.org/2000/svg" width="22" height="22">
    <defs>
        <style>
            .cls-1{fill:#fff}
        </style>
    </defs>
    <g id="sort" transform="translate(-295.75 -385.75)">
        <path id="Path_5857" data-name="Path 5857" class="cls-1" d="M312.442 398.723a.637.637 0 0 0-.9.031l-.894.938v-7.718a.675.675 0 0 0-.635-.666.672.672 0 0 0-.678.666v7.718l-.894-.938-.031-.031a.637.637 0 0 0-.9.031.715.715 0 0 0 0 .977l2.173 2.277.019.019a.426.426 0 0 0 .6-.019l2.173-2.277a.715.715 0 0 0 0-.977l-.033-.031z" transform="translate(.358 .261)"/>
        <path id="Path_5858" data-name="Path 5858" class="cls-1" d="M303.914 391.444a.426.426 0 0 0-.6-.019l-.019.019-2.173 2.277a.715.715 0 0 0 0 .977.637.637 0 0 0 .9.031.453.453 0 0 0 .031-.031l.894-.938v7.718a.672.672 0 0 0 .678.666.675.675 0 0 0 .635-.666v-7.717l.894.938a.637.637 0 0 0 .9.031l.031-.031a.715.715 0 0 0 0-.977z" transform="translate(.16 .261)"/>
        <path id="Path_5859" data-name="Path 5859" class="cls-1" d="M306.75 385.75a11 11 0 1 0 11 11 11.012 11.012 0 0 0-11-11zm0 20.465a9.465 9.465 0 1 1 9.465-9.465 9.475 9.475 0 0 1-9.465 9.465z"/>
    </g>
</svg>
