<svg xmlns="http://www.w3.org/2000/svg" width="24" height="23.556">
    <path style="fill:transparent" d="M0 0h24v23.556H0z"/>
    <path data-name="Shape 197 copy" d="M394.935 63.353a3.083 3.083 0 0 1 3.065 2.9v1.652l3.816-4.024c.118-.13.14-.19.307-.19a.564.564 0 0 1 .217.05.6.6 0 0 1 .327.59v10.89a.582.582 0 0 1-.3.59c-.078.03-.08.05-.159.05a.463.463 0 0 1-.381-.19L398 71.639V73.3a3.085 3.085 0 0 1-3.065 2.9h-6.9a2.77 2.77 0 0 1-2.7-2.9v-7.046a2.768 2.768 0 0 1 2.7-2.9h6.9m0-1.353h-6.9A4.1 4.1 0 0 0 384 66.254V73.3a4.1 4.1 0 0 0 4.032 4.255h6.9a4.528 4.528 0 0 0 4.13-2.846l1.806 1.9a1.762 1.762 0 0 0 1.341.6 1.485 1.485 0 0 0 .67-.154l.02-.009a1.913 1.913 0 0 0 1.1-1.831V64.332a1.948 1.948 0 0 0-1.128-1.831l-.027-.012-.028-.011a1.859 1.859 0 0 0-.694-.14 1.58 1.58 0 0 0-1.261.6l-.027.031-1.773 1.869A4.528 4.528 0 0 0 394.935 62z" transform="translate(-382 -58)" style="fill:#fff"/>
</svg>
